<mxfile host="app.diagrams.net" modified="2022-07-10T14:29:51.990Z" agent="5.0 (Windows NT 10.0; Win64; x64) AppleWebKit/537.36 (KHTML, like Gecko) Chrome/103.0.0.0 Safari/537.36" etag="ypkkK58ewHM2QkjQefCa" version="20.0.4" type="github">
  <diagram id="sND-rCSmJP05-suhYlH1" name="Page-1">
    <mxGraphModel dx="5087" dy="2879" grid="1" gridSize="10" guides="1" tooltips="1" connect="1" arrows="1" fold="1" page="1" pageScale="1" pageWidth="827" pageHeight="1169" math="0" shadow="0">
      <root>
        <mxCell id="0" />
        <mxCell id="1" parent="0" />
        <mxCell id="pi0GS6j_OADM4Y7yktkx-1" value="&lt;font style=&quot;font-size: 36px;&quot;&gt;JAVA&lt;/font&gt;" style="rounded=1;whiteSpace=wrap;html=1;" parent="1" vertex="1">
          <mxGeometry x="200" y="-340" width="380" height="130" as="geometry" />
        </mxCell>
        <mxCell id="pi0GS6j_OADM4Y7yktkx-2" value="&lt;font style=&quot;font-size: 17px;&quot;&gt;Basic&lt;/font&gt;" style="ellipse;whiteSpace=wrap;html=1;" parent="1" vertex="1">
          <mxGeometry x="270" y="-80" width="170" height="80" as="geometry" />
        </mxCell>
        <mxCell id="zAGFAAuZ6QF6loXqFJau-5" style="edgeStyle=orthogonalEdgeStyle;rounded=0;orthogonalLoop=1;jettySize=auto;html=1;exitX=0.25;exitY=1;exitDx=0;exitDy=0;entryX=0.539;entryY=0.108;entryDx=0;entryDy=0;entryPerimeter=0;fontSize=18;" edge="1" parent="1" source="pi0GS6j_OADM4Y7yktkx-4" target="zAGFAAuZ6QF6loXqFJau-4">
          <mxGeometry relative="1" as="geometry" />
        </mxCell>
        <mxCell id="pi0GS6j_OADM4Y7yktkx-4" value="&lt;font style=&quot;font-size: 12px;&quot;&gt;Packages&lt;br&gt;DataStructures&lt;br&gt;Class,OOP,Interfaces&lt;br&gt;&lt;/font&gt;" style="rounded=1;whiteSpace=wrap;html=1;fontSize=20;" parent="1" vertex="1">
          <mxGeometry x="530" y="80" width="120" height="70" as="geometry" />
        </mxCell>
        <mxCell id="pi0GS6j_OADM4Y7yktkx-35" style="edgeStyle=orthogonalEdgeStyle;rounded=0;orthogonalLoop=1;jettySize=auto;html=1;exitX=0.25;exitY=1;exitDx=0;exitDy=0;entryX=1;entryY=0;entryDx=0;entryDy=0;fontSize=12;" parent="1" source="pi0GS6j_OADM4Y7yktkx-7" target="pi0GS6j_OADM4Y7yktkx-34" edge="1">
          <mxGeometry relative="1" as="geometry">
            <Array as="points">
              <mxPoint x="180" y="220" />
              <mxPoint x="30" y="220" />
              <mxPoint x="30" y="289" />
            </Array>
          </mxGeometry>
        </mxCell>
        <mxCell id="pi0GS6j_OADM4Y7yktkx-7" value="DataType&amp;nbsp;&lt;br&gt;Variable&lt;br&gt;Basic Syntax&lt;br&gt;Conditionals&amp;nbsp;&lt;br&gt;Function" style="rounded=1;whiteSpace=wrap;html=1;fontSize=12;" parent="1" vertex="1">
          <mxGeometry x="110" y="80" width="120" height="80" as="geometry" />
        </mxCell>
        <mxCell id="pi0GS6j_OADM4Y7yktkx-15" value="Class" style="shape=hexagon;perimeter=hexagonPerimeter2;whiteSpace=wrap;html=1;fixedSize=1;fontSize=12;" parent="1" vertex="1">
          <mxGeometry x="460" y="310" width="120" height="30" as="geometry" />
        </mxCell>
        <mxCell id="pi0GS6j_OADM4Y7yktkx-17" value="" style="endArrow=classic;startArrow=classic;html=1;rounded=0;fontSize=12;" parent="1" edge="1">
          <mxGeometry width="50" height="50" relative="1" as="geometry">
            <mxPoint x="410" y="380" as="sourcePoint" />
            <mxPoint x="460" y="330" as="targetPoint" />
          </mxGeometry>
        </mxCell>
        <mxCell id="pi0GS6j_OADM4Y7yktkx-19" value="" style="endArrow=classic;startArrow=classic;html=1;rounded=0;fontSize=12;" parent="1" edge="1">
          <mxGeometry width="50" height="50" relative="1" as="geometry">
            <mxPoint x="605" y="380" as="sourcePoint" />
            <mxPoint x="570" y="330" as="targetPoint" />
          </mxGeometry>
        </mxCell>
        <mxCell id="pi0GS6j_OADM4Y7yktkx-25" style="edgeStyle=orthogonalEdgeStyle;rounded=0;orthogonalLoop=1;jettySize=auto;html=1;exitX=0;exitY=0.5;exitDx=0;exitDy=0;entryX=0.5;entryY=0;entryDx=0;entryDy=0;fontSize=12;" parent="1" source="pi0GS6j_OADM4Y7yktkx-21" target="pi0GS6j_OADM4Y7yktkx-23" edge="1">
          <mxGeometry relative="1" as="geometry">
            <Array as="points">
              <mxPoint x="340" y="395" />
              <mxPoint x="340" y="420" />
              <mxPoint x="290" y="420" />
            </Array>
          </mxGeometry>
        </mxCell>
        <mxCell id="pi0GS6j_OADM4Y7yktkx-27" style="edgeStyle=orthogonalEdgeStyle;rounded=0;orthogonalLoop=1;jettySize=auto;html=1;exitX=1;exitY=0.5;exitDx=0;exitDy=0;entryX=0.654;entryY=-0.06;entryDx=0;entryDy=0;entryPerimeter=0;fontSize=12;" parent="1" source="pi0GS6j_OADM4Y7yktkx-21" target="pi0GS6j_OADM4Y7yktkx-24" edge="1">
          <mxGeometry relative="1" as="geometry">
            <Array as="points">
              <mxPoint x="400" y="395" />
              <mxPoint x="400" y="420" />
              <mxPoint x="436" y="420" />
            </Array>
          </mxGeometry>
        </mxCell>
        <mxCell id="pi0GS6j_OADM4Y7yktkx-21" value="Method" style="whiteSpace=wrap;html=1;fontSize=12;" parent="1" vertex="1">
          <mxGeometry x="320" y="380" width="90" height="30" as="geometry" />
        </mxCell>
        <mxCell id="pi0GS6j_OADM4Y7yktkx-32" style="edgeStyle=orthogonalEdgeStyle;rounded=0;orthogonalLoop=1;jettySize=auto;html=1;exitX=0.25;exitY=1;exitDx=0;exitDy=0;entryX=0.75;entryY=0;entryDx=0;entryDy=0;fontSize=12;" parent="1" source="pi0GS6j_OADM4Y7yktkx-22" target="pi0GS6j_OADM4Y7yktkx-28" edge="1">
          <mxGeometry relative="1" as="geometry" />
        </mxCell>
        <mxCell id="pi0GS6j_OADM4Y7yktkx-33" style="edgeStyle=orthogonalEdgeStyle;rounded=0;orthogonalLoop=1;jettySize=auto;html=1;exitX=0.75;exitY=1;exitDx=0;exitDy=0;fontSize=12;entryX=0.25;entryY=0;entryDx=0;entryDy=0;" parent="1" source="pi0GS6j_OADM4Y7yktkx-22" target="pi0GS6j_OADM4Y7yktkx-29" edge="1">
          <mxGeometry relative="1" as="geometry">
            <mxPoint x="730" y="440" as="targetPoint" />
          </mxGeometry>
        </mxCell>
        <mxCell id="pi0GS6j_OADM4Y7yktkx-22" value="Field" style="whiteSpace=wrap;html=1;fontSize=12;" parent="1" vertex="1">
          <mxGeometry x="600" y="380" width="110" height="30" as="geometry" />
        </mxCell>
        <mxCell id="pi0GS6j_OADM4Y7yktkx-23" value="General&amp;nbsp;" style="whiteSpace=wrap;html=1;fontSize=12;" parent="1" vertex="1">
          <mxGeometry x="260" y="450" width="60" height="20" as="geometry" />
        </mxCell>
        <mxCell id="pi0GS6j_OADM4Y7yktkx-24" value="Special" style="whiteSpace=wrap;html=1;fontSize=12;" parent="1" vertex="1">
          <mxGeometry x="390" y="450" width="70" height="20" as="geometry" />
        </mxCell>
        <mxCell id="pi0GS6j_OADM4Y7yktkx-28" value="Variable" style="whiteSpace=wrap;html=1;fontSize=12;" parent="1" vertex="1">
          <mxGeometry x="520" y="450" width="90" height="20" as="geometry" />
        </mxCell>
        <mxCell id="pi0GS6j_OADM4Y7yktkx-29" value="Constants" style="whiteSpace=wrap;html=1;fontSize=12;" parent="1" vertex="1">
          <mxGeometry x="710" y="450" width="100" height="20" as="geometry" />
        </mxCell>
        <mxCell id="pi0GS6j_OADM4Y7yktkx-34" value="DataType" style="ellipse;whiteSpace=wrap;html=1;fontSize=12;" parent="1" vertex="1">
          <mxGeometry x="-40" y="280" width="120" height="60" as="geometry" />
        </mxCell>
        <mxCell id="pi0GS6j_OADM4Y7yktkx-37" value="Primitive" style="ellipse;whiteSpace=wrap;html=1;fontSize=12;" parent="1" vertex="1">
          <mxGeometry x="-210" y="380" width="140" height="40" as="geometry" />
        </mxCell>
        <mxCell id="pi0GS6j_OADM4Y7yktkx-38" value="User Defined" style="ellipse;whiteSpace=wrap;html=1;fontSize=12;" parent="1" vertex="1">
          <mxGeometry x="90" y="380" width="120" height="40" as="geometry" />
        </mxCell>
        <mxCell id="pi0GS6j_OADM4Y7yktkx-42" value="" style="endArrow=classic;html=1;rounded=0;fontSize=12;entryX=1;entryY=0;entryDx=0;entryDy=0;exitX=0.083;exitY=0.833;exitDx=0;exitDy=0;exitPerimeter=0;" parent="1" source="pi0GS6j_OADM4Y7yktkx-34" target="pi0GS6j_OADM4Y7yktkx-37" edge="1">
          <mxGeometry width="50" height="50" relative="1" as="geometry">
            <mxPoint x="-30" y="320" as="sourcePoint" />
            <mxPoint x="-50" y="420" as="targetPoint" />
          </mxGeometry>
        </mxCell>
        <mxCell id="pi0GS6j_OADM4Y7yktkx-43" value="" style="endArrow=classic;html=1;rounded=0;fontSize=12;exitX=1.007;exitY=0.729;exitDx=0;exitDy=0;exitPerimeter=0;" parent="1" source="pi0GS6j_OADM4Y7yktkx-34" edge="1">
          <mxGeometry width="50" height="50" relative="1" as="geometry">
            <mxPoint x="90" y="310" as="sourcePoint" />
            <mxPoint x="140" y="380" as="targetPoint" />
          </mxGeometry>
        </mxCell>
        <mxCell id="pi0GS6j_OADM4Y7yktkx-52" style="edgeStyle=orthogonalEdgeStyle;rounded=0;orthogonalLoop=1;jettySize=auto;html=1;exitX=0.16;exitY=0.55;exitDx=0;exitDy=0;exitPerimeter=0;entryX=0.75;entryY=0;entryDx=0;entryDy=0;entryPerimeter=0;fontSize=24;" parent="1" source="pi0GS6j_OADM4Y7yktkx-46" edge="1">
          <mxGeometry relative="1" as="geometry">
            <mxPoint x="160" y="640" as="targetPoint" />
            <Array as="points">
              <mxPoint x="160" y="589" />
            </Array>
          </mxGeometry>
        </mxCell>
        <mxCell id="pi0GS6j_OADM4Y7yktkx-53" style="edgeStyle=orthogonalEdgeStyle;rounded=0;orthogonalLoop=1;jettySize=auto;html=1;exitX=0.8;exitY=0.8;exitDx=0;exitDy=0;exitPerimeter=0;entryX=0.425;entryY=-0.04;entryDx=0;entryDy=0;entryPerimeter=0;fontSize=24;" parent="1" source="pi0GS6j_OADM4Y7yktkx-46" target="pi0GS6j_OADM4Y7yktkx-55" edge="1">
          <mxGeometry relative="1" as="geometry">
            <mxPoint x="395" y="640" as="targetPoint" />
            <Array as="points">
              <mxPoint x="502" y="610" />
            </Array>
          </mxGeometry>
        </mxCell>
        <mxCell id="pi0GS6j_OADM4Y7yktkx-46" value="Input&amp;nbsp;" style="ellipse;shape=cloud;whiteSpace=wrap;html=1;fontSize=24;" parent="1" vertex="1">
          <mxGeometry x="290" y="545" width="120" height="80" as="geometry" />
        </mxCell>
        <mxCell id="pi0GS6j_OADM4Y7yktkx-54" value="&lt;span style=&quot;font-size: 18px;&quot;&gt;Scanner&lt;/span&gt;" style="rounded=1;whiteSpace=wrap;html=1;fontSize=10;" parent="1" vertex="1">
          <mxGeometry x="100" y="640" width="120" height="50" as="geometry" />
        </mxCell>
        <mxCell id="pi0GS6j_OADM4Y7yktkx-55" value="&lt;font style=&quot;font-size: 18px;&quot;&gt;BufferedReader&lt;/font&gt;" style="rounded=1;whiteSpace=wrap;html=1;fontSize=10;" parent="1" vertex="1">
          <mxGeometry x="430" y="650" width="170" height="50" as="geometry" />
        </mxCell>
        <mxCell id="pi0GS6j_OADM4Y7yktkx-56" value="String next()" style="ellipse;whiteSpace=wrap;html=1;fontSize=18;" parent="1" vertex="1">
          <mxGeometry x="-50" y="710" width="120" height="80" as="geometry" />
        </mxCell>
        <mxCell id="pi0GS6j_OADM4Y7yktkx-57" value="Int nextInt()" style="ellipse;whiteSpace=wrap;html=1;fontSize=18;" parent="1" vertex="1">
          <mxGeometry x="80" y="710" width="120" height="80" as="geometry" />
        </mxCell>
        <mxCell id="pi0GS6j_OADM4Y7yktkx-58" value="double netDouble()" style="ellipse;whiteSpace=wrap;html=1;fontSize=18;" parent="1" vertex="1">
          <mxGeometry x="220" y="710" width="140" height="80" as="geometry" />
        </mxCell>
        <mxCell id="pi0GS6j_OADM4Y7yktkx-60" value="" style="endArrow=classic;html=1;rounded=0;fontSize=18;" parent="1" edge="1">
          <mxGeometry width="50" height="50" relative="1" as="geometry">
            <mxPoint x="100" y="680" as="sourcePoint" />
            <mxPoint x="40" y="715" as="targetPoint" />
            <Array as="points">
              <mxPoint x="100" y="680" />
            </Array>
          </mxGeometry>
        </mxCell>
        <mxCell id="pi0GS6j_OADM4Y7yktkx-63" value="" style="endArrow=classic;html=1;rounded=0;fontSize=18;" parent="1" edge="1">
          <mxGeometry width="50" height="50" relative="1" as="geometry">
            <mxPoint x="155" y="690" as="sourcePoint" />
            <mxPoint x="155" y="720" as="targetPoint" />
          </mxGeometry>
        </mxCell>
        <mxCell id="pi0GS6j_OADM4Y7yktkx-64" value="" style="endArrow=classic;html=1;rounded=0;fontSize=18;entryX=0.379;entryY=0.042;entryDx=0;entryDy=0;entryPerimeter=0;" parent="1" target="pi0GS6j_OADM4Y7yktkx-58" edge="1">
          <mxGeometry width="50" height="50" relative="1" as="geometry">
            <mxPoint x="220" y="670" as="sourcePoint" />
            <mxPoint x="250" y="700" as="targetPoint" />
            <Array as="points">
              <mxPoint x="250" y="670" />
            </Array>
          </mxGeometry>
        </mxCell>
        <mxCell id="pi0GS6j_OADM4Y7yktkx-65" value="String readLine()" style="ellipse;whiteSpace=wrap;html=1;fontSize=18;" parent="1" vertex="1">
          <mxGeometry x="450" y="730" width="120" height="70" as="geometry" />
        </mxCell>
        <mxCell id="pi0GS6j_OADM4Y7yktkx-66" value="" style="endArrow=classic;html=1;rounded=0;fontSize=18;entryX=0.5;entryY=0;entryDx=0;entryDy=0;exitX=0.433;exitY=1.053;exitDx=0;exitDy=0;exitPerimeter=0;" parent="1" source="pi0GS6j_OADM4Y7yktkx-55" target="pi0GS6j_OADM4Y7yktkx-65" edge="1">
          <mxGeometry width="50" height="50" relative="1" as="geometry">
            <mxPoint x="270" y="670" as="sourcePoint" />
            <mxPoint x="320" y="620" as="targetPoint" />
          </mxGeometry>
        </mxCell>
        <mxCell id="pi0GS6j_OADM4Y7yktkx-67" value="&lt;font style=&quot;font-size: 24px;&quot;&gt;&lt;font style=&quot;&quot;&gt;Wrappe&lt;/font&gt;r Class&lt;/font&gt;" style="whiteSpace=wrap;html=1;fontSize=18;" parent="1" vertex="1">
          <mxGeometry x="210" y="840" width="120" height="70" as="geometry" />
        </mxCell>
        <mxCell id="pi0GS6j_OADM4Y7yktkx-68" value="Integer" style="ellipse;shape=cloud;whiteSpace=wrap;html=1;fontSize=18;" parent="1" vertex="1">
          <mxGeometry x="40" y="960" width="110" height="80" as="geometry" />
        </mxCell>
        <mxCell id="pi0GS6j_OADM4Y7yktkx-69" value="Long" style="ellipse;shape=cloud;whiteSpace=wrap;html=1;fontSize=18;" parent="1" vertex="1">
          <mxGeometry x="160" y="960" width="120" height="80" as="geometry" />
        </mxCell>
        <mxCell id="pi0GS6j_OADM4Y7yktkx-70" value="Float" style="ellipse;shape=cloud;whiteSpace=wrap;html=1;fontSize=18;" parent="1" vertex="1">
          <mxGeometry x="280" y="960" width="120" height="80" as="geometry" />
        </mxCell>
        <mxCell id="pi0GS6j_OADM4Y7yktkx-71" value="Double" style="ellipse;shape=cloud;whiteSpace=wrap;html=1;fontSize=18;" parent="1" vertex="1">
          <mxGeometry x="400" y="960" width="120" height="80" as="geometry" />
        </mxCell>
        <mxCell id="pi0GS6j_OADM4Y7yktkx-72" value="Short" style="ellipse;shape=cloud;whiteSpace=wrap;html=1;fontSize=18;" parent="1" vertex="1">
          <mxGeometry x="-90" y="960" width="120" height="80" as="geometry" />
        </mxCell>
        <mxCell id="pi0GS6j_OADM4Y7yktkx-73" value="Byte" style="ellipse;shape=cloud;whiteSpace=wrap;html=1;fontSize=18;" parent="1" vertex="1">
          <mxGeometry x="-210" y="960" width="120" height="80" as="geometry" />
        </mxCell>
        <mxCell id="pi0GS6j_OADM4Y7yktkx-74" value="Character" style="ellipse;shape=cloud;whiteSpace=wrap;html=1;fontSize=18;" parent="1" vertex="1">
          <mxGeometry x="530" y="960" width="120" height="80" as="geometry" />
        </mxCell>
        <mxCell id="pi0GS6j_OADM4Y7yktkx-75" value="Boolean" style="ellipse;shape=cloud;whiteSpace=wrap;html=1;fontSize=18;" parent="1" vertex="1">
          <mxGeometry x="650" y="960" width="120" height="80" as="geometry" />
        </mxCell>
        <mxCell id="pi0GS6j_OADM4Y7yktkx-80" value="" style="endArrow=classic;html=1;rounded=0;fontSize=24;" parent="1" edge="1">
          <mxGeometry width="50" height="50" relative="1" as="geometry">
            <mxPoint x="230" y="910" as="sourcePoint" />
            <mxPoint x="-140" y="950" as="targetPoint" />
          </mxGeometry>
        </mxCell>
        <mxCell id="pi0GS6j_OADM4Y7yktkx-81" value="" style="endArrow=classic;html=1;rounded=0;fontSize=24;entryX=0.736;entryY=0.2;entryDx=0;entryDy=0;entryPerimeter=0;" parent="1" target="pi0GS6j_OADM4Y7yktkx-72" edge="1">
          <mxGeometry width="50" height="50" relative="1" as="geometry">
            <mxPoint x="220" y="910" as="sourcePoint" />
            <mxPoint x="240" y="820" as="targetPoint" />
          </mxGeometry>
        </mxCell>
        <mxCell id="pi0GS6j_OADM4Y7yktkx-82" value="" style="endArrow=classic;html=1;rounded=0;fontSize=24;entryX=0.88;entryY=0.25;entryDx=0;entryDy=0;entryPerimeter=0;exitX=0;exitY=1;exitDx=0;exitDy=0;" parent="1" source="pi0GS6j_OADM4Y7yktkx-67" target="pi0GS6j_OADM4Y7yktkx-68" edge="1">
          <mxGeometry width="50" height="50" relative="1" as="geometry">
            <mxPoint x="190" y="870" as="sourcePoint" />
            <mxPoint x="240" y="820" as="targetPoint" />
          </mxGeometry>
        </mxCell>
        <mxCell id="pi0GS6j_OADM4Y7yktkx-83" value="" style="endArrow=classic;html=1;rounded=0;fontSize=24;entryX=0.4;entryY=0.1;entryDx=0;entryDy=0;entryPerimeter=0;exitX=1;exitY=1;exitDx=0;exitDy=0;" parent="1" source="pi0GS6j_OADM4Y7yktkx-67" target="pi0GS6j_OADM4Y7yktkx-70" edge="1">
          <mxGeometry width="50" height="50" relative="1" as="geometry">
            <mxPoint x="190" y="870" as="sourcePoint" />
            <mxPoint x="240" y="820" as="targetPoint" />
          </mxGeometry>
        </mxCell>
        <mxCell id="pi0GS6j_OADM4Y7yktkx-84" value="" style="endArrow=classic;html=1;rounded=0;fontSize=24;entryX=0.4;entryY=0.1;entryDx=0;entryDy=0;entryPerimeter=0;" parent="1" target="pi0GS6j_OADM4Y7yktkx-69" edge="1">
          <mxGeometry width="50" height="50" relative="1" as="geometry">
            <mxPoint x="210" y="910" as="sourcePoint" />
            <mxPoint x="220" y="820" as="targetPoint" />
          </mxGeometry>
        </mxCell>
        <mxCell id="pi0GS6j_OADM4Y7yktkx-85" value="" style="endArrow=classic;html=1;rounded=0;fontSize=24;entryX=0.4;entryY=0.1;entryDx=0;entryDy=0;entryPerimeter=0;" parent="1" target="pi0GS6j_OADM4Y7yktkx-74" edge="1">
          <mxGeometry width="50" height="50" relative="1" as="geometry">
            <mxPoint x="330" y="910" as="sourcePoint" />
            <mxPoint x="240" y="820" as="targetPoint" />
          </mxGeometry>
        </mxCell>
        <mxCell id="pi0GS6j_OADM4Y7yktkx-86" value="" style="endArrow=classic;html=1;rounded=0;fontSize=24;entryX=0.4;entryY=0.1;entryDx=0;entryDy=0;entryPerimeter=0;" parent="1" target="pi0GS6j_OADM4Y7yktkx-71" edge="1">
          <mxGeometry width="50" height="50" relative="1" as="geometry">
            <mxPoint x="330" y="910" as="sourcePoint" />
            <mxPoint x="240" y="820" as="targetPoint" />
          </mxGeometry>
        </mxCell>
        <mxCell id="pi0GS6j_OADM4Y7yktkx-92" value="" style="endArrow=classic;html=1;rounded=0;fontSize=24;entryX=0.4;entryY=0.1;entryDx=0;entryDy=0;entryPerimeter=0;" parent="1" target="pi0GS6j_OADM4Y7yktkx-75" edge="1">
          <mxGeometry width="50" height="50" relative="1" as="geometry">
            <mxPoint x="330" y="910" as="sourcePoint" />
            <mxPoint x="530" y="820" as="targetPoint" />
          </mxGeometry>
        </mxCell>
        <mxCell id="zAGFAAuZ6QF6loXqFJau-8" style="edgeStyle=orthogonalEdgeStyle;rounded=0;orthogonalLoop=1;jettySize=auto;html=1;exitX=0.31;exitY=0.8;exitDx=0;exitDy=0;exitPerimeter=0;entryX=0.625;entryY=0;entryDx=0;entryDy=0;fontSize=18;" edge="1" parent="1" source="zAGFAAuZ6QF6loXqFJau-4" target="pi0GS6j_OADM4Y7yktkx-15">
          <mxGeometry relative="1" as="geometry" />
        </mxCell>
        <mxCell id="zAGFAAuZ6QF6loXqFJau-4" value="&lt;font style=&quot;font-size: 18px;&quot;&gt;Package&lt;/font&gt;" style="ellipse;shape=cloud;whiteSpace=wrap;html=1;" vertex="1" parent="1">
          <mxGeometry x="520" y="200" width="120" height="80" as="geometry" />
        </mxCell>
        <mxCell id="zAGFAAuZ6QF6loXqFJau-6" value="" style="endArrow=classic;html=1;rounded=0;fontSize=18;exitX=0.411;exitY=0.985;exitDx=0;exitDy=0;exitPerimeter=0;" edge="1" parent="1" source="pi0GS6j_OADM4Y7yktkx-2">
          <mxGeometry width="50" height="50" relative="1" as="geometry">
            <mxPoint x="230" y="410" as="sourcePoint" />
            <mxPoint x="550" y="70" as="targetPoint" />
          </mxGeometry>
        </mxCell>
        <mxCell id="zAGFAAuZ6QF6loXqFJau-7" value="" style="endArrow=classic;html=1;rounded=0;fontSize=18;" edge="1" parent="1">
          <mxGeometry width="50" height="50" relative="1" as="geometry">
            <mxPoint x="350" as="sourcePoint" />
            <mxPoint x="190" y="70" as="targetPoint" />
          </mxGeometry>
        </mxCell>
        <mxCell id="zAGFAAuZ6QF6loXqFJau-10" style="edgeStyle=orthogonalEdgeStyle;rounded=0;orthogonalLoop=1;jettySize=auto;html=1;exitX=0.25;exitY=1;exitDx=0;exitDy=0;fontSize=18;" edge="1" parent="1" source="zAGFAAuZ6QF6loXqFJau-9">
          <mxGeometry relative="1" as="geometry">
            <mxPoint x="680" y="710" as="targetPoint" />
          </mxGeometry>
        </mxCell>
        <mxCell id="zAGFAAuZ6QF6loXqFJau-11" style="edgeStyle=orthogonalEdgeStyle;rounded=0;orthogonalLoop=1;jettySize=auto;html=1;exitX=0.75;exitY=1;exitDx=0;exitDy=0;fontSize=18;" edge="1" parent="1" source="zAGFAAuZ6QF6loXqFJau-9">
          <mxGeometry relative="1" as="geometry">
            <mxPoint x="810" y="710" as="targetPoint" />
          </mxGeometry>
        </mxCell>
        <mxCell id="zAGFAAuZ6QF6loXqFJau-9" value="Object" style="shape=trapezoid;perimeter=trapezoidPerimeter;whiteSpace=wrap;html=1;fixedSize=1;fontSize=18;" vertex="1" parent="1">
          <mxGeometry x="690" y="570" width="120" height="60" as="geometry" />
        </mxCell>
        <mxCell id="zAGFAAuZ6QF6loXqFJau-12" value="&lt;font size=&quot;3&quot;&gt;newkeyword&lt;/font&gt;" style="ellipse;whiteSpace=wrap;html=1;fontSize=18;" vertex="1" parent="1">
          <mxGeometry x="620" y="710" width="120" height="60" as="geometry" />
        </mxCell>
        <mxCell id="zAGFAAuZ6QF6loXqFJau-13" value="&lt;font style=&quot;font-size: 14px;&quot;&gt;Constructor&lt;/font&gt;" style="ellipse;whiteSpace=wrap;html=1;fontSize=18;" vertex="1" parent="1">
          <mxGeometry x="760" y="710" width="120" height="60" as="geometry" />
        </mxCell>
        <mxCell id="zAGFAAuZ6QF6loXqFJau-22" style="edgeStyle=orthogonalEdgeStyle;rounded=0;orthogonalLoop=1;jettySize=auto;html=1;exitX=0.13;exitY=0.77;exitDx=0;exitDy=0;exitPerimeter=0;fontSize=14;" edge="1" parent="1" source="zAGFAAuZ6QF6loXqFJau-14" target="zAGFAAuZ6QF6loXqFJau-15">
          <mxGeometry relative="1" as="geometry" />
        </mxCell>
        <mxCell id="zAGFAAuZ6QF6loXqFJau-24" style="edgeStyle=orthogonalEdgeStyle;rounded=0;orthogonalLoop=1;jettySize=auto;html=1;exitX=0.8;exitY=0.8;exitDx=0;exitDy=0;exitPerimeter=0;fontSize=14;" edge="1" parent="1" source="zAGFAAuZ6QF6loXqFJau-14" target="zAGFAAuZ6QF6loXqFJau-16">
          <mxGeometry relative="1" as="geometry" />
        </mxCell>
        <mxCell id="zAGFAAuZ6QF6loXqFJau-14" value="&lt;font size=&quot;3&quot;&gt;Array&lt;/font&gt;" style="ellipse;shape=cloud;whiteSpace=wrap;html=1;fontSize=14;" vertex="1" parent="1">
          <mxGeometry x="-413" y="1050" width="240" height="150" as="geometry" />
        </mxCell>
        <mxCell id="zAGFAAuZ6QF6loXqFJau-15" value="&lt;font size=&quot;3&quot;&gt;Single Dimensional&lt;/font&gt;" style="shape=tape;whiteSpace=wrap;html=1;fontSize=18;" vertex="1" parent="1">
          <mxGeometry x="-570" y="1260" width="160" height="100" as="geometry" />
        </mxCell>
        <mxCell id="zAGFAAuZ6QF6loXqFJau-16" value="&lt;font size=&quot;3&quot;&gt;Multi Dimensional&lt;/font&gt;" style="shape=tape;whiteSpace=wrap;html=1;fontSize=18;" vertex="1" parent="1">
          <mxGeometry x="-190" y="1260" width="160" height="100" as="geometry" />
        </mxCell>
        <mxCell id="zAGFAAuZ6QF6loXqFJau-17" value="int[]num=new int [5]" style="text;html=1;align=center;verticalAlign=middle;resizable=0;points=[];autosize=1;strokeColor=none;fillColor=none;fontSize=14;" vertex="1" parent="1">
          <mxGeometry x="-675" y="1405" width="150" height="30" as="geometry" />
        </mxCell>
        <mxCell id="zAGFAAuZ6QF6loXqFJau-18" value="int [][]num=new int[3][4]" style="text;html=1;align=center;verticalAlign=middle;resizable=0;points=[];autosize=1;strokeColor=none;fillColor=none;fontSize=14;" vertex="1" parent="1">
          <mxGeometry x="-255" y="1405" width="170" height="30" as="geometry" />
        </mxCell>
        <mxCell id="zAGFAAuZ6QF6loXqFJau-19" value="" style="endArrow=none;html=1;rounded=0;fontSize=14;exitX=0.413;exitY=0.028;exitDx=0;exitDy=0;exitPerimeter=0;entryX=0.188;entryY=1;entryDx=0;entryDy=0;entryPerimeter=0;" edge="1" parent="1" source="zAGFAAuZ6QF6loXqFJau-17" target="zAGFAAuZ6QF6loXqFJau-15">
          <mxGeometry width="50" height="50" relative="1" as="geometry">
            <mxPoint x="-260" y="1140" as="sourcePoint" />
            <mxPoint x="-210" y="1090" as="targetPoint" />
          </mxGeometry>
        </mxCell>
        <mxCell id="zAGFAAuZ6QF6loXqFJau-20" value="" style="endArrow=none;html=1;rounded=0;fontSize=14;entryX=0.25;entryY=1;entryDx=0;entryDy=0;entryPerimeter=0;" edge="1" parent="1" target="zAGFAAuZ6QF6loXqFJau-16">
          <mxGeometry width="50" height="50" relative="1" as="geometry">
            <mxPoint x="-190" y="1400" as="sourcePoint" />
            <mxPoint x="-210" y="1090" as="targetPoint" />
          </mxGeometry>
        </mxCell>
        <mxCell id="zAGFAAuZ6QF6loXqFJau-25" value="OOPS" style="shape=document;whiteSpace=wrap;html=1;boundedLbl=1;fontSize=36;" vertex="1" parent="1">
          <mxGeometry x="100" y="1310" width="240" height="150" as="geometry" />
        </mxCell>
        <mxCell id="zAGFAAuZ6QF6loXqFJau-26" value="&lt;font size=&quot;3&quot;&gt;&amp;nbsp;INHERITANCE&lt;/font&gt;" style="triangle;whiteSpace=wrap;html=1;fontSize=36;align=left;" vertex="1" parent="1">
          <mxGeometry x="-200" y="1560" width="150" height="110" as="geometry" />
        </mxCell>
        <mxCell id="zAGFAAuZ6QF6loXqFJau-27" value="&lt;font size=&quot;3&quot;&gt;ABSTRACTION&lt;/font&gt;" style="triangle;whiteSpace=wrap;html=1;fontSize=36;align=left;" vertex="1" parent="1">
          <mxGeometry x="30" y="1560" width="150" height="110" as="geometry" />
        </mxCell>
        <mxCell id="zAGFAAuZ6QF6loXqFJau-28" value="&lt;font style=&quot;font-size: 14px;&quot;&gt;POLYMORPHISM&lt;/font&gt;" style="triangle;whiteSpace=wrap;html=1;fontSize=36;" vertex="1" parent="1">
          <mxGeometry x="300" y="1560" width="150" height="130" as="geometry" />
        </mxCell>
        <mxCell id="zAGFAAuZ6QF6loXqFJau-29" value="&lt;font style=&quot;font-size: 14px;&quot;&gt;ENCAPSULATION&lt;/font&gt;" style="triangle;whiteSpace=wrap;html=1;fontSize=36;" vertex="1" parent="1">
          <mxGeometry x="570" y="1560" width="150" height="120" as="geometry" />
        </mxCell>
        <mxCell id="zAGFAAuZ6QF6loXqFJau-32" value="" style="endArrow=classic;html=1;rounded=0;fontSize=36;entryX=0.5;entryY=0;entryDx=0;entryDy=0;exitX=0.003;exitY=0.86;exitDx=0;exitDy=0;exitPerimeter=0;" edge="1" parent="1" source="zAGFAAuZ6QF6loXqFJau-25" target="zAGFAAuZ6QF6loXqFJau-26">
          <mxGeometry width="50" height="50" relative="1" as="geometry">
            <mxPoint x="80" y="1320" as="sourcePoint" />
            <mxPoint x="130" y="1270" as="targetPoint" />
          </mxGeometry>
        </mxCell>
        <mxCell id="zAGFAAuZ6QF6loXqFJau-33" value="" style="endArrow=classic;html=1;rounded=0;fontSize=36;entryX=0;entryY=0.25;entryDx=0;entryDy=0;exitX=1;exitY=0.75;exitDx=0;exitDy=0;" edge="1" parent="1" source="zAGFAAuZ6QF6loXqFJau-25" target="zAGFAAuZ6QF6loXqFJau-29">
          <mxGeometry width="50" height="50" relative="1" as="geometry">
            <mxPoint x="370" y="1420" as="sourcePoint" />
            <mxPoint x="130" y="1270" as="targetPoint" />
          </mxGeometry>
        </mxCell>
        <mxCell id="zAGFAAuZ6QF6loXqFJau-34" value="" style="endArrow=classic;html=1;rounded=0;fontSize=36;entryX=-0.003;entryY=0.088;entryDx=0;entryDy=0;entryPerimeter=0;exitX=0.529;exitY=0.881;exitDx=0;exitDy=0;exitPerimeter=0;" edge="1" parent="1" source="zAGFAAuZ6QF6loXqFJau-25" target="zAGFAAuZ6QF6loXqFJau-28">
          <mxGeometry width="50" height="50" relative="1" as="geometry">
            <mxPoint x="80" y="1320" as="sourcePoint" />
            <mxPoint x="130" y="1270" as="targetPoint" />
          </mxGeometry>
        </mxCell>
        <mxCell id="zAGFAAuZ6QF6loXqFJau-35" value="" style="endArrow=classic;html=1;rounded=0;fontSize=36;exitX=0.516;exitY=0.892;exitDx=0;exitDy=0;exitPerimeter=0;" edge="1" parent="1" source="zAGFAAuZ6QF6loXqFJau-25" target="zAGFAAuZ6QF6loXqFJau-27">
          <mxGeometry width="50" height="50" relative="1" as="geometry">
            <mxPoint x="80" y="1320" as="sourcePoint" />
            <mxPoint x="130" y="1270" as="targetPoint" />
          </mxGeometry>
        </mxCell>
        <mxCell id="zAGFAAuZ6QF6loXqFJau-36" value="" style="shape=waypoint;sketch=0;size=6;pointerEvents=1;points=[];fillColor=none;resizable=0;rotatable=0;perimeter=centerPerimeter;snapToPoint=1;fontSize=36;" vertex="1" parent="1">
          <mxGeometry x="210" y="1420" width="40" height="40" as="geometry" />
        </mxCell>
        <mxCell id="zAGFAAuZ6QF6loXqFJau-44" style="edgeStyle=orthogonalEdgeStyle;rounded=0;orthogonalLoop=1;jettySize=auto;html=1;exitX=0;exitY=1;exitDx=0;exitDy=0;entryX=1;entryY=0;entryDx=0;entryDy=0;fontSize=36;" edge="1" parent="1" source="zAGFAAuZ6QF6loXqFJau-38" target="zAGFAAuZ6QF6loXqFJau-40">
          <mxGeometry relative="1" as="geometry" />
        </mxCell>
        <mxCell id="zAGFAAuZ6QF6loXqFJau-46" style="edgeStyle=orthogonalEdgeStyle;rounded=0;orthogonalLoop=1;jettySize=auto;html=1;exitX=0.5;exitY=1;exitDx=0;exitDy=0;entryX=0.5;entryY=0;entryDx=0;entryDy=0;fontSize=36;" edge="1" parent="1" source="zAGFAAuZ6QF6loXqFJau-38" target="zAGFAAuZ6QF6loXqFJau-41">
          <mxGeometry relative="1" as="geometry" />
        </mxCell>
        <mxCell id="zAGFAAuZ6QF6loXqFJau-47" style="edgeStyle=orthogonalEdgeStyle;rounded=0;orthogonalLoop=1;jettySize=auto;html=1;exitX=1;exitY=1;exitDx=0;exitDy=0;fontSize=36;" edge="1" parent="1" source="zAGFAAuZ6QF6loXqFJau-38" target="zAGFAAuZ6QF6loXqFJau-42">
          <mxGeometry relative="1" as="geometry" />
        </mxCell>
        <mxCell id="zAGFAAuZ6QF6loXqFJau-38" value="&lt;font style=&quot;font-size: 36px;&quot;&gt;AWT&lt;/font&gt;" style="shape=process;whiteSpace=wrap;html=1;backgroundOutline=1;fontSize=14;" vertex="1" parent="1">
          <mxGeometry x="1010" y="780" width="330" height="190" as="geometry" />
        </mxCell>
        <mxCell id="zAGFAAuZ6QF6loXqFJau-40" value="Container" style="ellipse;whiteSpace=wrap;html=1;fontSize=36;" vertex="1" parent="1">
          <mxGeometry x="640" y="1180" width="220" height="160" as="geometry" />
        </mxCell>
        <mxCell id="zAGFAAuZ6QF6loXqFJau-41" value="Components" style="ellipse;whiteSpace=wrap;html=1;fontSize=36;" vertex="1" parent="1">
          <mxGeometry x="1040" y="1180" width="250.5" height="160" as="geometry" />
        </mxCell>
        <mxCell id="zAGFAAuZ6QF6loXqFJau-42" value="Supporting" style="ellipse;whiteSpace=wrap;html=1;fontSize=36;" vertex="1" parent="1">
          <mxGeometry x="1430" y="1210" width="190" height="150" as="geometry" />
        </mxCell>
      </root>
    </mxGraphModel>
  </diagram>
</mxfile>
